<svg xmlns="http://www.w3.org/2000/svg" xmlns:xlink="http://www.w3.org/1999/xlink" width="500" zoomAndPan="magnify" viewBox="0 0 375 374.999991" height="500" preserveAspectRatio="xMidYMid meet" version="1.0"><defs><clipPath id="ba7663bf97"><path d="M 5 44 L 301 44 L 301 286 L 5 286 Z M 5 44 " clip-rule="nonzero"/></clipPath><clipPath id="b5940cfd04"><path d="M -45.578125 108.363281 L 361.359375 -32.109375 L 444.320312 208.222656 L 37.386719 348.695312 Z M -45.578125 108.363281 " clip-rule="nonzero"/></clipPath><clipPath id="aec6758c8a"><path d="M -45.578125 108.363281 L 361.359375 -32.109375 L 444.320312 208.222656 L 37.386719 348.695312 Z M -45.578125 108.363281 " clip-rule="nonzero"/></clipPath><clipPath id="2c86570f94"><path d="M 279 7 L 370 7 L 370 107 L 279 107 Z M 279 7 " clip-rule="nonzero"/></clipPath><clipPath id="152e6a4475"><path d="M -45.578125 108.363281 L 361.359375 -32.109375 L 444.320312 208.222656 L 37.386719 348.695312 Z M -45.578125 108.363281 " clip-rule="nonzero"/></clipPath><clipPath id="0919221a10"><path d="M -45.578125 108.363281 L 361.359375 -32.109375 L 444.320312 208.222656 L 37.386719 348.695312 Z M -45.578125 108.363281 " clip-rule="nonzero"/></clipPath></defs><g clip-path="url(#ba7663bf97)"><g clip-path="url(#b5940cfd04)"><g clip-path="url(#aec6758c8a)"><path fill="#0cc0df" d="M 286.347656 108.285156 C 291.417969 117.820312 295.378906 128.269531 297.78125 139.347656 C 311.992188 204.191406 270.917969 268.214844 206.074219 282.425781 C 153.683594 293.84375 101.839844 269.269531 76.324219 225.210938 C 76.375 225.105469 209.894531 204.691406 286.347656 108.285156 M 28.792969 211.320312 C -12.835938 203.210938 7.960938 168.21875 40.757812 155.121094 C 33.140625 160.859375 3.863281 199.84375 63.640625 196.445312 C 63.90625 196.445312 64.25 196.414062 64.515625 196.410156 C 64.046875 194.53125 63.574219 192.648438 63.074219 190.6875 C 48.867188 125.84375 89.9375 61.820312 154.78125 47.613281 C 206.246094 36.332031 257.226562 59.960938 283.125 102.554688 C 265.867188 125.660156 224.21875 155.320312 177.753906 176.957031 C 123.015625 202.429688 61.742188 217.714844 28.792969 211.320312 Z M 28.792969 211.320312 " fill-opacity="1" fill-rule="evenodd"/></g></g></g><g clip-path="url(#2c86570f94)"><g clip-path="url(#152e6a4475)"><g clip-path="url(#0919221a10)"><path fill="#0cc0df" d="M 292.398438 27.742188 C 306.152344 30.011719 329.054688 35.609375 335.257812 29.382812 C 339.988281 24.550781 344.796875 19.691406 349.605469 14.835938 C 364.980469 -0.601562 377.097656 12.363281 364.96875 28.457031 L 353.949219 43.632812 C 348.765625 50.753906 356.570312 70.273438 361.59375 83.289062 C 363.863281 89.082031 362.761719 93.101562 360.539062 96.179688 C 359.386719 97.734375 358.589844 97.742188 357.507812 96.160156 C 350.492188 85.609375 343.550781 75.03125 336.535156 64.484375 C 335.183594 62.371094 334.140625 61.667969 332.222656 63.574219 C 325.492188 70.335938 318.738281 77.023438 312.011719 83.789062 C 311.484375 84.324219 311.277344 84.753906 311.683594 85.414062 C 315.347656 92.675781 317.082031 101.050781 312.910156 105.691406 C 311.9375 106.738281 311.25 107.0625 310.464844 105.558594 C 308.105469 101.042969 305.78125 94.824219 303.480469 90.730469 C 300.316406 92.890625 297.476562 90.582031 298.605469 87.171875 L 283.390625 84.785156 C 279.902344 84.210938 281.050781 82.125 283.105469 80.617188 C 287.507812 77.410156 295.289062 77.300781 301.886719 78.398438 C 302.925781 78.574219 303.429688 78.488281 304.003906 77.578125 L 320.199219 51.90625 C 321.503906 49.769531 320.835938 49.378906 318.808594 48.65625 L 280.652344 34.636719 C 278.519531 33.863281 278.691406 32.828125 280.324219 31.375 C 283.585938 28.472656 286.621094 26.714844 292.398438 27.742188 " fill-opacity="1" fill-rule="evenodd"/></g></g></g></svg>